/vscmnt/brussel_pixiu_data/_data_brussel/112/vsc11236/PredSimResults/SUBJ07mtu3D/worker6.mot
version=1
nRows=4
nColumns=50
inDegrees=yes
endheader
                time	         pelvis_tilt	         pelvis_list	     pelvis_rotation	           pelvis_tx	           pelvis_ty	           pelvis_tz	       hip_flexion_r	     hip_adduction_r	      hip_rotation_r	        knee_angle_r	       ankle_angle_r	         mtp_angle_r	       hip_flexion_l	     hip_adduction_l	      hip_rotation_l	        knee_angle_l	       ankle_angle_l	         mtp_angle_l	    lumbar_extension	      lumbar_bending	     lumbar_rotation	 ercspn_r/activation	 intobl_r/activation	 extobl_r/activation	    abd_r/activation	    add_r/activation	hamstrings_r/activation	bifemsh_r/activation	glut_max_r/activation	iliopsoas_r/activation	rect_fem_r/activation	  vasti_r/activation	gastroc_r/activation	 soleus_r/activation	tib_ant_r/activation	 ercspn_l/activation	 intobl_l/activation	 extobl_l/activation	    abd_l/activation	    add_l/activation	hamstrings_l/activation	bifemsh_l/activation	glut_max_l/activation	iliopsoas_l/activation	rect_fem_l/activation	  vasti_l/activation	gastroc_l/activation	 soleus_l/activation	tib_ant_l/activation	
          0.00000000	         -4.02541422	         -2.72543707	          6.42887937	          0.00000000	          0.85702483	         -0.00932151	         28.37128121	          0.93919971	         -2.63562073	         -7.65095409	          3.80621588	          0.26535419	        -12.57872569	         -2.55096088	         -0.07239930	        -11.40676959	          7.03147061	         28.66054149	         -7.70106670	          1.63952719	         -4.02894854	          0.08789179	          0.18764758	          0.02929315	          0.03653656	          0.12800018	          0.02890589	          0.01000003	          0.00999999	          0.06154755	          0.02620994	          0.05419879	          0.01264404	          0.00999999	          0.30765951	          0.05596486	          0.00999999	          0.00999999	          0.03193930	          0.01884408	          0.01092077	          0.12495935	          0.01900978	          0.28150328	          0.00999999	          0.00999999	          0.05321031	          0.26741572	          0.01643596	
          0.01045238	         -4.09197310	         -2.56833113	          6.20214086	          0.01500696	          0.85569345	         -0.00919289	         27.76486636	          1.20578376	         -1.88305435	         -7.95539897	          3.45119962	          0.26633102	        -12.64452176	         -2.39763345	         -0.72750724	        -13.04731505	          6.10041325	         30.25956447	         -7.48524035	          2.04692569	         -4.13677532	          0.07485208	          0.15980802	          0.02494719	          0.03111596	          0.15266506	          0.02461739	          0.01000000	          0.07634505	          0.05241630	          0.02232141	          0.05537342	          0.01076816	          0.01618948	          0.30322449	          0.09925646	          0.00999999	          0.00999999	          0.02720076	          0.03570017	          0.01161831	          0.10642027	          0.01618948	          0.26100293	          0.00999999	          0.00999999	          0.04531598	          0.24692799	          0.01399751	
          0.02090476	         -4.14365435	         -2.43390380	          5.93245234	          0.03028878	          0.85443040	         -0.00904775	         27.03142776	          1.40303064	         -1.06607174	         -8.38420282	          3.21120306	          0.25084068	        -12.59010931	         -2.27282253	         -1.43199659	        -14.95588152	          5.07475113	         31.76186293	         -7.24075811	          2.49573686	         -4.22564522	          0.06626952	          0.15499651	          0.02124600	          0.07938305	          0.13188549	          0.03524348	          0.01900979	          0.06501843	          0.04463977	          0.01900978	          0.04715817	          0.01174206	          0.01378759	          0.33808880	          0.10996440	          0.00999999	          0.00999999	          0.02316523	          0.03040366	          0.00999999	          0.09063166	          0.01378759	          0.22228030	          0.00999999	          0.00999999	          0.03859286	          0.21141863	          0.01192082	
          0.03135713	         -4.18337801	         -2.31256986	          5.61482197	          0.04564287	          0.85337315	         -0.00881763	         26.25698705	          1.58260204	         -0.36737137	         -8.74616786	          2.84889188	          0.24290102	        -12.34227175	         -2.17648997	         -2.18405355	        -17.22788902	          3.94286236	         33.05764307	         -6.99303126	          2.96424566	         -4.29272062	          0.06870411	          0.13200109	          0.01809393	          0.11959276	          0.12716939	          0.04032750	          0.01618949	          0.05537224	          0.03801697	          0.01618948	          0.06199034	          0.01000000	          0.01174205	          0.36359795	          0.12194397	          0.00999999	          0.00999999	          0.01972842	          0.02589295	          0.01548934	          0.07718547	          0.01174205	          0.18930260	          0.00999999	          0.00999999	          0.03286719	          0.18005237	          0.01015224	
